HIERARCHY
ROOT hip
{
  OFFSET -37.7254 83.4604 202.276
  CHANNELS 6 Xposition Yposition Zposition Zrotation Xrotation Yrotation
  JOINT abdomen
  {
    OFFSET 0 20.6881 -0.73152
    CHANNELS 3 Zrotation Xrotation Yrotation
    JOINT chest
    {
      OFFSET 0 11.7043 -0.48768
      CHANNELS 3 Zrotation Xrotation Yrotation
      JOINT neck
      {
        OFFSET 0 22.1894 -2.19456
        CHANNELS 3 Zrotation Xrotation Yrotation
        JOINT head
        {
          OFFSET -0.24384 7.07133 1.2192
          CHANNELS 3 Zrotation Xrotation Yrotation
          JOINT leftEye
          {
            OFFSET 4.14528 8.04674 8.04672
            CHANNELS 3 Zrotation Xrotation Yrotation
            End Site
            {
              OFFSET 1 0 0
            }
          }
          JOINT rightEye
          {
            OFFSET -3.6576 8.04674 8.04672
            CHANNELS 3 Zrotation Xrotation Yrotation
            End Site
            {
              OFFSET 1 0 0
            }
          }
        }
      }
      JOINT rCollar
      {
        OFFSET -2.68224 19.2634 -4.8768
        CHANNELS 3 Zrotation Xrotation Yrotation
        JOINT rShldr
        {
          OFFSET -8.77824 -1.95073 1.46304
          CHANNELS 3 Zrotation Xrotation Yrotation
          JOINT rForeArm
          {
            OFFSET -28.1742 -1.7115 0.48768
            CHANNELS 3 Zrotation Xrotation Yrotation
            JOINT rHand
            {
              OFFSET -22.5879 0.773209 7.07136
              CHANNELS 3 Zrotation Xrotation Yrotation
              JOINT rThumb1
              {
                OFFSET -1.2192 -0.487915 3.41376
                CHANNELS 3 Zrotation Xrotation Yrotation
                JOINT rThumb2
                {
                  OFFSET -3.37035 -0.52449 3.41376
                  CHANNELS 3 Zrotation Xrotation Yrotation
                  End Site
                  {
                    OFFSET -1.78271 -1.18214 1.43049
                  }
                }
              }
              JOINT rIndex1
              {
                OFFSET -7.75947 0.938293 5.60832
                CHANNELS 3 Zrotation Xrotation Yrotation
                JOINT rIndex2
                {
                  OFFSET -2.54057 -0.884171 1.56538
                  CHANNELS 3 Zrotation Xrotation Yrotation
                  End Site
                  {
                    OFFSET -1.62519 -0.234802 1.16502
                  }
                }
              }
              JOINT rMid1
              {
                OFFSET -8.24714 1.18213 3.41376
                CHANNELS 3 Zrotation Xrotation Yrotation
                JOINT rMid2
                {
                  OFFSET -3.10165 -0.590103 1.0647
                  CHANNELS 3 Zrotation Xrotation Yrotation
                  End Site
                  {
                    OFFSET -2.48547 -0.328903 0.83742
                  }
                }
              }
              JOINT rRing1
              {
                OFFSET -8.82822 0.546677 1.51678
                CHANNELS 3 Zrotation Xrotation Yrotation
                JOINT rRing2
                {
                  OFFSET -2.60934 -0.819778 -0.0198488
                  CHANNELS 3 Zrotation Xrotation Yrotation
                  End Site
                  {
                    OFFSET -2.33842 -0.294052 0.168128
                  }
                }
              }
              JOINT rPinky1
              {
                OFFSET -8.27202 -0.0477905 -0.4584
                CHANNELS 3 Zrotation Xrotation Yrotation
                JOINT rPinky2
                {
                  OFFSET -1.82734 -0.647385 -0.700984
                  CHANNELS 3 Zrotation Xrotation Yrotation
                  End Site
                  {
                    OFFSET -1.69225 -0.51767 -0.607171
                  }
                }
              }
            }
          }
        }
      }
      JOINT lCollar
      {
        OFFSET 2.68224 19.2634 -4.8768
        CHANNELS 3 Zrotation Xrotation Yrotation
        JOINT lShldr
        {
          OFFSET 8.77824 -1.95073 1.46304
          CHANNELS 3 Zrotation Xrotation Yrotation
          JOINT lForeArm
          {
            OFFSET 28.1742 -1.7115 0.48768
            CHANNELS 3 Zrotation Xrotation Yrotation
            JOINT lHand
            {
              OFFSET 22.5879 0.773209 7.07136
              CHANNELS 3 Zrotation Xrotation Yrotation
              JOINT lThumb1
              {
                OFFSET 1.2192 -0.487915 3.41376
                CHANNELS 3 Zrotation Xrotation Yrotation
                JOINT lThumb2
                {
                  OFFSET 3.37035 -0.52449 3.41376
                  CHANNELS 3 Zrotation Xrotation Yrotation
                  End Site
                  {
                    OFFSET 1.78271 -1.18214 1.43049
                  }
                }
              }
              JOINT lIndex1
              {
                OFFSET 7.75947 0.938293 5.60832
                CHANNELS 3 Zrotation Xrotation Yrotation
                JOINT lIndex2
                {
                  OFFSET 2.54057 -0.884171 1.56538
                  CHANNELS 3 Zrotation Xrotation Yrotation
                  End Site
                  {
                    OFFSET 1.62519 -0.234802 1.16502
                  }
                }
              }
              JOINT lMid1
              {
                OFFSET 8.24714 1.18213 3.41376
                CHANNELS 3 Zrotation Xrotation Yrotation
                JOINT lMid2
                {
                  OFFSET 3.10165 -0.590103 1.0647
                  CHANNELS 3 Zrotation Xrotation Yrotation
                  End Site
                  {
                    OFFSET 2.48547 -0.328903 0.83742
                  }
                }
              }
              JOINT lRing1
              {
                OFFSET 8.82822 0.546677 1.51678
                CHANNELS 3 Zrotation Xrotation Yrotation
                JOINT lRing2
                {
                  OFFSET 2.60934 -0.819778 -0.0198488
                  CHANNELS 3 Zrotation Xrotation Yrotation
                  End Site
                  {
                    OFFSET 2.33842 -0.294052 0.168128
                  }
                }
              }
              JOINT lPinky1
              {
                OFFSET 8.27202 -0.0477905 -0.4584
                CHANNELS 3 Zrotation Xrotation Yrotation
                JOINT lPinky2
                {
                  OFFSET 1.82734 -0.647385 -0.700984
                  CHANNELS 3 Zrotation Xrotation Yrotation
                  End Site
                  {
                    OFFSET 1.69225 -0.51767 -0.607171
                  }
                }
              }
            }
          }
        }
      }
    }
  }
  JOINT rButtock
  {
    OFFSET -8.77824 4.35084 1.2192
    CHANNELS 3 Zrotation Xrotation Yrotation
    JOINT rThigh
    {
      OFFSET 0 -1.70687 -2.19456
      CHANNELS 3 Zrotation Xrotation Yrotation
      JOINT rShin
      {
        OFFSET 0 -36.8199 0.73152
        CHANNELS 3 Zrotation Xrotation Yrotation
        JOINT rFoot
        {
          OFFSET 0.73152 -45.1104 -5.12064
          CHANNELS 3 Zrotation Xrotation Yrotation
          End Site
          {
            OFFSET -1.1221 -3.69964 12.103
          }
        }
      }
    }
  }
  JOINT lButtock
  {
    OFFSET 8.77824 4.35084 1.2192
    CHANNELS 3 Zrotation Xrotation Yrotation
    JOINT lThigh
    {
      OFFSET 0 -1.70687 -2.19456
      CHANNELS 3 Zrotation Xrotation Yrotation
      JOINT lShin
      {
        OFFSET 0 -36.8199 0.73152
        CHANNELS 3 Zrotation Xrotation Yrotation
        JOINT lFoot
        {
          OFFSET -0.73152 -45.1104 -5.12064
          CHANNELS 3 Zrotation Xrotation Yrotation
          End Site
          {
            OFFSET 1.1221 -3.69964 12.103
          }
        }
      }
    }
  }
}
MOTION
Frames:	5
Frame Time:	0.00833333
-35.3992 85.1932 209.885 -0.435324 -0.00123186 0.00742715 0.572862 -0.00324249 0.0163891 0.158164 -0.00505495 0.0274049 7.92536e-016 0 -1.42876e-016 2.57178e-015 3.18055e-015 -4.25523e-016 -0 0 0 -0 0 0 4.95695e-016 7.37677e-018 1.49089e-016 1.03105e-014 3.10601e-017 -5.96354e-016 1.55002e-013 -4.47266e-014 -4.45278e-014 1.77952e-012 5.34234e-014 -2.95792e-013 4.19796e-012 1.65551e-014 -7.15625e-013 7.23695e-012 3.81667e-014 -1.23803e-012 4.20231e-012 1.82882e-014 -7.21986e-013 7.73091 5.47488 0.417314 4.19724e-012 1.65985e-014 -7.09264e-013 2.90554 0.965183 0.102902 4.20523e-012 1.64991e-014 -7.10854e-013 10.2786 0.731801 0.0259123 4.19555e-012 1.74931e-014 -6.99722e-013 2.22167 -0.733487 -0.20892 2.99471e-016 7.37677e-018 -2.48481e-016 7.19245e-015 3.10601e-016 -2.38542e-015 1.5207e-013 5.02925e-014 -2.22639e-014 1.77386e-012 -2.35311e-014 -3.02153e-013 4.1884e-012 5.30459e-014 -7.09264e-013 7.2457e-012 8.90555e-014 -1.22372e-012 4.18044e-012 5.48646e-014 -6.96541e-013 -7.73091 5.47488 -0.417314 4.18944e-012 5.27773e-014 -7.15625e-013 -2.90554 0.965183 -0.102902 4.18249e-012 5.29761e-014 -7.10854e-013 -10.2786 0.731801 -0.0259123 4.18919e-012 5.4467e-014 -7.25166e-013 -2.22167 -0.733487 0.20892 -2.03217e-016 0 -3.88251e-019 0.920442 -4.54482 -0.0776204 -0.00189504 2.6807 -0.00763369 -0.489888 1.86451 0.0936524 2.03217e-016 0 3.88251e-019 -0.0477245 -2.33549 0.0218152 0.00803151 -1.3211 0.0687473 0.481279 3.65688 -0.128859 
-40.4888 83.2214 201.627 -3.37066 0.677911 27.0607 0.356299 -4.479 1.09519 -0.136603 -0.200497 0.288915 -8.09205 9.17676 -1.74336 19.2437 -9.8769 -1.04916 -0 0 0 -0 0 0 7.5306e-016 -2.85756e-013 -1.75191e-014 22.4644 5.45411 -3.3158 -4.72139 -2.25543 7.25106 0.068092 5.79431 0.799377 -3.58222e-010 -1.74886e-010 1.82489e-010 -6.16876e-010 -3.04603e-010 3.22e-010 -3.58217e-010 -1.74884e-010 1.82484e-010 7.73091 5.47488 0.417314 -3.58225e-010 -1.74885e-010 1.82495e-010 2.90554 0.965183 0.102902 -3.58215e-010 -1.74882e-010 1.82491e-010 10.2786 0.731801 0.0259123 -3.58223e-010 -1.74881e-010 1.825e-010 2.22167 -0.733487 -0.20892 6.38494e-016 -2.85758e-013 -1.78724e-014 -21.0871 10.8828 3.99762 6.92098 -3.96717 -9.7706 -0.495058 -15.7214 1.92082 -1.51006e-010 -4.55804e-011 -2.03167e-010 -2.51593e-010 -8.81843e-011 -3.57629e-010 -1.51013e-010 -4.5579e-011 -2.03158e-010 -7.73091 5.47488 -0.417314 -1.51005e-010 -4.55799e-011 -2.03169e-010 -2.90554 0.965183 -0.102902 -1.51012e-010 -4.55795e-011 -2.03166e-010 -10.2786 0.731801 -0.0259123 -1.51005e-010 -4.55783e-011 -2.03179e-010 -2.22167 -0.733487 0.20892 -2.03217e-016 0 -3.88251e-019 0.124867 -7.8522 -2.62118 -0.0036154 6.45225 0.041006 -0.00145957 -2.99155 4.49617 2.03217e-016 0 3.88251e-019 0.529486 -5.88484 1.38559 0.00470533 2.36227 0.00304508 0.454746 -0.0259409 -0.540344 
-40.4412 83.2171 201.622 -7.04999 0.884559 55.6645 0.313535 -9.20842 2.25637 -0.447335 -0.402979 0.564961 -16.0084 18.8524 -3.74186 39.1662 -20.3 -2.27655 -0 0 0 -0 0 0 2.00127e-015 -5.5419e-013 -3.22559e-014 46.9167 11.1597 -6.90968 -9.0897 -4.51358 14.9411 -0.0393038 11.9251 1.67336 -7.77167e-010 -3.79865e-010 3.88857e-010 -1.33833e-009 -6.61603e-010 6.86284e-010 -7.77161e-010 -3.79863e-010 3.88852e-010 7.73091 5.47488 0.417314 -7.77171e-010 -3.79864e-010 3.88861e-010 2.90554 0.965183 0.102902 -7.7716e-010 -3.79857e-010 3.88855e-010 10.2786 0.731801 0.0259123 -7.77166e-010 -3.79857e-010 3.88863e-010 2.22167 -0.733487 -0.20892 1.97459e-015 -5.54195e-013 -3.25603e-014 -45.1494 22.1656 8.69407 12.7548 -7.7448 -20.2073 0.316998 -32.2641 4.49811 -3.25614e-010 -9.58559e-011 -4.25575e-010 -5.43072e-010 -1.85385e-010 -7.49361e-010 -3.2562e-010 -9.58549e-011 -4.2557e-010 -7.73091 5.47488 -0.417314 -3.25612e-010 -9.58545e-011 -4.25572e-010 -2.90554 0.965183 -0.102902 -3.2562e-010 -9.58539e-011 -4.25572e-010 -10.2786 0.731801 -0.0259123 -3.25612e-010 -9.58529e-011 -4.25583e-010 -2.22167 -0.733487 0.20892 -2.03217e-016 0 -3.88251e-019 -1.04311 -11.3099 -5.36 -0.0125029 10.4405 0.093462 1.32907 -8.04219 9.22335 2.03217e-016 0 3.88251e-019 1.32392 -9.62246 2.85113 0.0104033 6.25739 -0.0668318 0.369231 -3.92068 -0.976284 
-40.3975 83.2117 201.627 -10.4615 0.351193 81.1681 0.440607 -13.4111 3.33377 -0.720784 -0.591331 0.811973 -22.4235 27.4216 -5.81881 56.5083 -29.5878 -3.56637 -0 0 0 -0 0 0 1.26779e-015 -8.57282e-013 -5.28554e-014 69.3421 16.1387 -10.3129 -12.4885 -6.33376 21.8766 -0.300326 17.3691 2.49994 -1.08306e-009 -5.2469e-010 5.48899e-010 -1.8651e-009 -9.13886e-010 9.68475e-010 -1.08306e-009 -5.24688e-010 5.48895e-010 7.73091 5.47488 0.417314 -1.08307e-009 -5.24688e-010 5.48902e-010 2.90554 0.965183 0.102902 -1.08305e-009 -5.24678e-010 5.48894e-010 10.2786 0.731801 0.0259123 -1.08306e-009 -5.24678e-010 5.48901e-010 2.22167 -0.733487 -0.20892 1.31654e-015 -8.5729e-013 -5.31202e-014 -68.466 31.9544 13.9191 16.8444 -10.5184 -29.7905 2.90979 -46.9007 8.13271 -4.61395e-010 -1.36847e-010 -6.08083e-010 -7.69269e-010 -2.64731e-010 -1.07044e-009 -4.61401e-010 -1.36847e-010 -6.08081e-010 -7.73091 5.47488 -0.417314 -4.61393e-010 -1.36845e-010 -6.08075e-010 -2.90554 0.965183 -0.102902 -4.61401e-010 -1.36845e-010 -6.08077e-010 -10.2786 0.731801 -0.0259123 -4.61393e-010 -1.36844e-010 -6.08088e-010 -2.22167 -0.733487 0.20892 -2.03217e-016 0 -3.88251e-019 -2.37025 -14.3601 -7.88277 -0.026786 13.9953 0.141696 3.23549 -12.3852 13.6054 2.03217e-016 0 3.88251e-019 2.20221 -12.955 4.1983 0.0236023 9.72899 -0.130203 0.241939 -7.3895 -1.37526 
-40.3448 83.2059 201.619 -12.6893 -0.432547 98.9346 0.623352 -16.3152 4.12473 -0.904605 -0.744406 0.986365 -26.4509 33.3275 -7.53642 68.3193 -36.0794 -4.61354 -0 0 0 -0 0 0 -4.41989e-015 -1.24702e-012 -8.81113e-014 85.3152 19.5102 -12.8939 -14.6197 -7.46548 26.8094 -0.579632 21.1091 3.11015 -1.10633e-009 -5.19127e-010 5.93126e-010 -1.90519e-009 -9.04381e-010 1.04543e-009 -1.10632e-009 -5.19125e-010 5.93123e-010 7.73091 5.47488 0.417314 -1.10634e-009 -5.19125e-010 5.93129e-010 2.90554 0.965183 0.102902 -1.10632e-009 -5.19114e-010 5.93119e-010 10.2786 0.731801 0.0259123 -1.10633e-009 -5.19114e-010 5.93126e-010 2.22167 -0.733487 -0.20892 -4.32687e-015 -1.24703e-012 -8.83598e-014 -86.1624 38.6239 18.7275 19.2121 -12.052 -36.8 6.80077 -56.9892 12.4933 -5.00109e-010 -1.54629e-010 -6.90839e-010 -8.32261e-010 -2.9944e-010 -1.21488e-009 -5.00114e-010 -1.54629e-010 -6.90839e-010 -7.73091 5.47488 -0.417314 -5.00107e-010 -1.54626e-010 -6.90829e-010 -2.90554 0.965183 -0.102902 -5.00115e-010 -1.54626e-010 -6.90832e-010 -10.2786 0.731801 -0.0259123 -5.00106e-010 -1.54625e-010 -6.90842e-010 -2.22167 -0.733487 0.20892 -2.03217e-016 0 -3.88251e-019 -3.45644 -16.4853 -9.71832 -0.0404278 16.4663 0.176312 4.98073 -15.2679 16.8172 2.03217e-016 0 3.88251e-019 2.92299 -15.3006 5.17434 0.0374112 12.1418 -0.175198 0.122416 -9.79552 -1.66848 
